<?xml version="1.0" encoding="UTF-8" standalone="no"?>
<!DOCTYPE svg PUBLIC "-//W3C//DTD SVG 1.1//EN" "http://www.w3.org/Graphics/SVG/1.1/DTD/svg11.dtd">
<svg xmlns:xl="http://www.w3.org/1999/xlink" xmlns="http://www.w3.org/2000/svg" version="1.1" xmlns:dc="http://purl.org/dc/elements/1.1/" viewBox="574 -662 249 429" width="249" height="429">
  <defs>
    <marker orient="auto" overflow="visible" markerUnits="strokeWidth" id="FilledArrow_Marker" stroke-linejoin="miter" stroke-miterlimit="10" viewBox="-1 -4 10 8" markerWidth="10" markerHeight="8" color="black">
      <g>
        <path d="M 8 0 L 0 -3 L 0 3 Z" fill="currentColor" stroke="currentColor" stroke-width="1"/>
      </g>
    </marker>
  </defs>
  <g id="Canvas_1" stroke="none" stroke-opacity="1" stroke-dasharray="none" fill="none" fill-opacity="1">
    <title>Canvas 1</title>
    <g id="Canvas_1_Layer_1">
      <title>Layer 1</title>
      <g id="Graphic_11">
        <path d="M 726.45 -622.25 L 805.55 -622.25 C 814.9064 -622.25 822.5 -610.714 822.5 -596.5 C 822.5 -582.286 814.9064 -570.75 805.55 -570.75 L 726.45 -570.75 C 717.0936 -570.75 709.5 -582.286 709.5 -596.5 C 709.5 -610.714 717.0936 -622.25 726.45 -622.25 Z" fill="#ffffc0"/>
        <path d="M 726.45 -622.25 L 805.55 -622.25 C 814.9064 -622.25 822.5 -610.714 822.5 -596.5 C 822.5 -582.286 814.9064 -570.75 805.55 -570.75 L 726.45 -570.75 C 717.0936 -570.75 709.5 -582.286 709.5 -596.5 C 709.5 -610.714 717.0936 -622.25 726.45 -622.25 Z" stroke="gray" stroke-linecap="round" stroke-linejoin="round" stroke-width="1"/>
        <text transform="translate(725.8 -621.088)" fill="black">
          <tspan font-family="Helvetica Neue" font-size="14" fill="black" x="9.729001" y="13">Assembly </tspan>
          <tspan font-family="Helvetica Neue" font-size="14" fill="black" x="28.398" y="29.392">and </tspan>
          <tspan font-family="Helvetica Neue" font-size="14" fill="black" x="12.704001" y="45.783997">mapping</tspan>
        </text>
      </g>
      <g id="Graphic_12">
        <path d="M 726.45 -535.625 L 805.55 -535.625 C 814.9064 -535.625 822.5 -524.089 822.5 -509.875 C 822.5 -495.661 814.9064 -484.125 805.55 -484.125 L 726.45 -484.125 C 717.0936 -484.125 709.5 -495.661 709.5 -509.875 C 709.5 -524.089 717.0936 -535.625 726.45 -535.625 Z" fill="#ffffc0"/>
        <path d="M 726.45 -535.625 L 805.55 -535.625 C 814.9064 -535.625 822.5 -524.089 822.5 -509.875 C 822.5 -495.661 814.9064 -484.125 805.55 -484.125 L 726.45 -484.125 C 717.0936 -484.125 709.5 -495.661 709.5 -509.875 C 709.5 -524.089 717.0936 -535.625 726.45 -535.625 Z" stroke="gray" stroke-linecap="round" stroke-linejoin="round" stroke-width="1"/>
        <text transform="translate(725.8 -526.267)" fill="black">
          <tspan font-family="Helvetica Neue" font-size="14" fill="black" x="15.308" y="13">Variants </tspan>
          <tspan font-family="Helvetica Neue" font-size="14" fill="black" x="20.11" y="29.392">calling</tspan>
        </text>
      </g>
      <g id="Graphic_13">
        <path d="M 726.45 -444.5 L 805.55 -444.5 C 814.9064 -444.5 822.5 -432.964 822.5 -418.75 C 822.5 -404.536 814.9064 -393 805.55 -393 L 726.45 -393 C 717.0936 -393 709.5 -404.536 709.5 -418.75 C 709.5 -432.964 717.0936 -444.5 726.45 -444.5 Z" fill="#ffffc0"/>
        <path d="M 726.45 -444.5 L 805.55 -444.5 C 814.9064 -444.5 822.5 -432.964 822.5 -418.75 C 822.5 -404.536 814.9064 -393 805.55 -393 L 726.45 -393 C 717.0936 -393 709.5 -404.536 709.5 -418.75 C 709.5 -432.964 717.0936 -444.5 726.45 -444.5 Z" stroke="gray" stroke-linecap="round" stroke-linejoin="round" stroke-width="1"/>
        <text transform="translate(725.8 -426.946)" fill="black">
          <tspan font-family="Helvetica Neue" font-size="14" fill="black" x="29.826" y="13">QC</tspan>
        </text>
      </g>
      <g id="Graphic_14">
        <path d="M 726.45 -361 L 805.55 -361 C 814.9064 -361 822.5 -349.464 822.5 -335.25 C 822.5 -321.036 814.9064 -309.5 805.55 -309.5 L 726.45 -309.5 C 717.0936 -309.5 709.5 -321.036 709.5 -335.25 C 709.5 -349.464 717.0936 -361 726.45 -361 Z" fill="#ffffc0"/>
        <path d="M 726.45 -361 L 805.55 -361 C 814.9064 -361 822.5 -349.464 822.5 -335.25 C 822.5 -321.036 814.9064 -309.5 805.55 -309.5 L 726.45 -309.5 C 717.0936 -309.5 709.5 -321.036 709.5 -335.25 C 709.5 -349.464 717.0936 -361 726.45 -361 Z" stroke="gray" stroke-linecap="round" stroke-linejoin="round" stroke-width="1"/>
        <text transform="translate(725.8 -343.446)" fill="black">
          <tspan font-family="Helvetica Neue" font-size="14" fill="black" x="16.218" y="13">Plotting</tspan>
        </text>
      </g>
      <g id="Graphic_15">
        <path d="M 652.5 -409.97105 C 652.5 -418.5441 651.6491 -419.6048 645.4335 -428.08915 L 645.36785 -428.17694 C 639.1194 -436.75 639.05444 -436.75 632.6419 -436.75 C 624.1034 -436.75 585.5 -436.75 585.5 -436.75 L 585.5 -355.25 C 585.5 -350.27944 589.52944 -346.25 594.5 -346.25 L 643.5 -346.25 C 648.4706 -346.25 652.5 -350.27944 652.5 -355.25 L 652.5 -409.97105 Z" fill="#ffffc0"/>
        <path d="M 652.5 -409.97105 C 652.5 -418.5441 651.6491 -419.6048 645.4335 -428.08915 L 645.36785 -428.17694 C 639.1194 -436.75 639.05444 -436.75 632.6419 -436.75 C 624.1034 -436.75 585.5 -436.75 585.5 -436.75 L 585.5 -355.25 C 585.5 -350.27944 589.52944 -346.25 594.5 -346.25 L 643.5 -346.25 C 648.4706 -346.25 652.5 -350.27944 652.5 -355.25 L 652.5 -409.97105 Z M 652.5 -410.4127 C 652.5 -418.5441 652.43434 -418.5441 639.05444 -418.5441 L 639.05444 -418.5441 C 639.05444 -436.6613 639.05444 -436.75 633.0345 -436.75" stroke="black" stroke-linecap="round" stroke-linejoin="round" stroke-width="1"/>
        <text transform="translate(590.5 -407.892)" fill="black">
          <tspan font-family="Helvetica Neue" font-size="14" fill="black" x="3.608" y="13">Variants </tspan>
          <tspan font-family="Helvetica Neue" font-size="14" fill="black" x="16.572" y="29.392">plot</tspan>
        </text>
      </g>
      <g id="Graphic_16">
        <path d="M 652.5 -297.47105 C 652.5 -306.0441 651.6491 -307.10478 645.4335 -315.58915 L 645.36785 -315.67694 C 639.1194 -324.25 639.05444 -324.25 632.6419 -324.25 C 624.1034 -324.25 585.5 -324.25 585.5 -324.25 L 585.5 -242.75 C 585.5 -237.77944 589.52944 -233.75 594.5 -233.75 L 643.5 -233.75 C 648.4706 -233.75 652.5 -237.77944 652.5 -242.75 L 652.5 -297.47105 Z" fill="#ffffc0"/>
        <path d="M 652.5 -297.47105 C 652.5 -306.0441 651.6491 -307.10478 645.4335 -315.58915 L 645.36785 -315.67694 C 639.1194 -324.25 639.05444 -324.25 632.6419 -324.25 C 624.1034 -324.25 585.5 -324.25 585.5 -324.25 L 585.5 -242.75 C 585.5 -237.77944 589.52944 -233.75 594.5 -233.75 L 643.5 -233.75 C 648.4706 -233.75 652.5 -237.77944 652.5 -242.75 L 652.5 -297.47105 Z M 652.5 -297.9127 C 652.5 -306.0441 652.43434 -306.0441 639.05444 -306.0441 L 639.05444 -306.0441 C 639.05444 -324.1613 639.05444 -324.25 633.0345 -324.25" stroke="black" stroke-linecap="round" stroke-linejoin="round" stroke-width="1"/>
        <text transform="translate(590.5 -295.392)" fill="black">
          <tspan font-family="Helvetica Neue" font-size="14" fill="black" x="3.867" y="13">Lineage </tspan>
          <tspan font-family="Helvetica Neue" font-size="14" fill="black" x="16.572" y="29.392">plot</tspan>
        </text>
      </g>
      <g id="Line_17">
        <line x1="766" y1="-570.75" x2="766" y2="-545.525" marker-end="url(#FilledArrow_Marker)" stroke="black" stroke-linecap="round" stroke-linejoin="round" stroke-width="1"/>
      </g>
      <g id="Line_18">
        <line x1="766" y1="-484.125" x2="766" y2="-454.4" marker-end="url(#FilledArrow_Marker)" stroke="black" stroke-linecap="round" stroke-linejoin="round" stroke-width="1"/>
      </g>
      <g id="Line_19">
        <line x1="766" y1="-393" x2="766" y2="-370.9" marker-end="url(#FilledArrow_Marker)" stroke="black" stroke-linecap="round" stroke-linejoin="round" stroke-width="1"/>
      </g>
      <g id="Line_20">
        <line x1="715.3063" y1="-354.6481" x2="661.7462" y2="-375.14304" marker-end="url(#FilledArrow_Marker)" stroke="black" stroke-linecap="round" stroke-linejoin="round" stroke-width="1"/>
      </g>
      <g id="Line_21">
        <line x1="715.3063" y1="-315.8519" x2="661.7462" y2="-295.35696" marker-end="url(#FilledArrow_Marker)" stroke="black" stroke-linecap="round" stroke-linejoin="round" stroke-width="1"/>
      </g>
      <g id="Group_110">
        <g id="Group_29">
          <g id="Graphic_28">
            <path d="M 574.5 -661 L 638.5 -661 C 643.4706 -661 647.5 -656.9706 647.5 -652 L 647.5 -571 C 647.5 -566.02944 643.4706 -562 638.5 -562 L 583.5 -562 C 578.52944 -562 574.5 -566.02944 574.5 -571 Z" fill="#ffffc0"/>
            <path d="M 574.5 -661 L 638.5 -661 C 643.4706 -661 647.5 -656.9706 647.5 -652 L 647.5 -571 C 647.5 -566.02944 643.4706 -562 638.5 -562 L 583.5 -562 C 578.52944 -562 574.5 -566.02944 574.5 -571 Z" stroke="black" stroke-linecap="round" stroke-linejoin="round" stroke-width="1"/>
            <text transform="translate(579.5 -656)" fill="black">
              <tspan font-family="Helvetica Neue" font-size="16" fill="black" x="4.38" y="15">Sample</tspan>
            </text>
          </g>
          <g id="Group_6">
            <g id="Graphic_4">
              <path d="M 631.04975 -611.0399 C 631.04975 -616.8305 630.4649 -617.5469 626.1929 -623.2776 L 626.14776 -623.3369 C 621.85316 -629.1275 621.8085 -629.1275 617.4011 -629.1275 C 611.5325 -629.1275 585 -629.1275 585 -629.1275 L 585 -577 C 585 -572.02944 589.02944 -568 594 -568 L 622.04975 -568 C 627.0203 -568 631.04975 -572.02944 631.04975 -577 L 631.04975 -611.0399 Z" fill="#c0ffc0"/>
              <path d="M 631.04975 -611.0399 C 631.04975 -616.8305 630.4649 -617.5469 626.1929 -623.2776 L 626.14776 -623.3369 C 621.85316 -629.1275 621.8085 -629.1275 617.4011 -629.1275 C 611.5325 -629.1275 585 -629.1275 585 -629.1275 L 585 -577 C 585 -572.02944 589.02944 -568 594 -568 L 622.04975 -568 C 627.0203 -568 631.04975 -572.02944 631.04975 -577 L 631.04975 -611.0399 Z M 631.04975 -611.3382 C 631.04975 -616.8305 631.0046 -616.8305 621.8085 -616.8305 L 621.8085 -616.8305 C 621.8085 -629.0676 621.8085 -629.1275 617.6709 -629.1275" stroke="black" stroke-linecap="round" stroke-linejoin="round" stroke-width="1"/>
              <text transform="translate(590 -617.01174)" fill="black">
                <tspan font-family="Helvetica Neue" font-size="16" fill="black" x="3.9528756" y="15">Rea</tspan>
                <tspan font-family="Helvetica Neue" font-size="16" fill="black" x="9.280876" y="33.448">ds</tspan>
              </text>
            </g>
            <g id="Graphic_5">
              <path d="M 637 -616.9124 C 637 -622.703 636.4152 -623.4194 632.1431 -629.1501 L 632.098 -629.2094 C 627.8034 -635 627.7587 -635 623.3513 -635 C 617.4827 -635 590.95025 -635 590.95025 -635 L 590.95025 -582.8725 C 590.95025 -577.90195 594.9797 -573.8725 599.95025 -573.8725 L 628 -573.8725 C 632.9706 -573.8725 637 -577.90195 637 -582.8725 L 637 -616.9124 Z" fill="#c0ffc0"/>
              <path d="M 637 -616.9124 C 637 -622.703 636.4152 -623.4194 632.1431 -629.1501 L 632.098 -629.2094 C 627.8034 -635 627.7587 -635 623.3513 -635 C 617.4827 -635 590.95025 -635 590.95025 -635 L 590.95025 -582.8725 C 590.95025 -577.90195 594.9797 -573.8725 599.95025 -573.8725 L 628 -573.8725 C 632.9706 -573.8725 637 -577.90195 637 -582.8725 L 637 -616.9124 Z M 637 -617.2107 C 637 -622.703 636.9549 -622.703 627.7587 -622.703 L 627.7587 -622.703 C 627.7587 -634.9401 627.7587 -635 623.6212 -635" stroke="black" stroke-linecap="round" stroke-linejoin="round" stroke-width="1"/>
              <text transform="translate(595.95025 -611.60425)" fill="black">
                <tspan font-family="Helvetica Neue" font-size="12" fill="black" x=".9128756" y="11">Reads</tspan>
              </text>
            </g>
          </g>
        </g>
        <g id="Group_30">
          <g id="Graphic_34">
            <path d="M 575.5 -660 L 639.5 -660 C 644.4706 -660 648.5 -655.9706 648.5 -651 L 648.5 -570 C 648.5 -565.02944 644.4706 -561 639.5 -561 L 584.5 -561 C 579.52944 -561 575.5 -565.02944 575.5 -570 Z" fill="#ffffc0"/>
            <path d="M 575.5 -660 L 639.5 -660 C 644.4706 -660 648.5 -655.9706 648.5 -651 L 648.5 -570 C 648.5 -565.02944 644.4706 -561 639.5 -561 L 584.5 -561 C 579.52944 -561 575.5 -565.02944 575.5 -570 Z" stroke="black" stroke-linecap="round" stroke-linejoin="round" stroke-width="1"/>
            <text transform="translate(580.5 -655)" fill="black">
              <tspan font-family="Helvetica Neue" font-size="16" fill="black" x="4.38" y="15">Sample</tspan>
            </text>
          </g>
          <g id="Group_31">
            <g id="Graphic_33">
              <path d="M 632.04975 -610.0399 C 632.04975 -615.8305 631.4649 -616.5469 627.1929 -622.2776 L 627.14776 -622.3369 C 622.85316 -628.1275 622.8085 -628.1275 618.4011 -628.1275 C 612.5325 -628.1275 586 -628.1275 586 -628.1275 L 586 -576 C 586 -571.02944 590.02944 -567 595 -567 L 623.04975 -567 C 628.0203 -567 632.04975 -571.02944 632.04975 -576 L 632.04975 -610.0399 Z" fill="#c0ffc0"/>
              <path d="M 632.04975 -610.0399 C 632.04975 -615.8305 631.4649 -616.5469 627.1929 -622.2776 L 627.14776 -622.3369 C 622.85316 -628.1275 622.8085 -628.1275 618.4011 -628.1275 C 612.5325 -628.1275 586 -628.1275 586 -628.1275 L 586 -576 C 586 -571.02944 590.02944 -567 595 -567 L 623.04975 -567 C 628.0203 -567 632.04975 -571.02944 632.04975 -576 L 632.04975 -610.0399 Z M 632.04975 -610.3382 C 632.04975 -615.8305 632.0046 -615.8305 622.8085 -615.8305 L 622.8085 -615.8305 C 622.8085 -628.0676 622.8085 -628.1275 618.6709 -628.1275" stroke="black" stroke-linecap="round" stroke-linejoin="round" stroke-width="1"/>
              <text transform="translate(591 -616.01174)" fill="black">
                <tspan font-family="Helvetica Neue" font-size="16" fill="black" x="3.9528756" y="15">Rea</tspan>
                <tspan font-family="Helvetica Neue" font-size="16" fill="black" x="9.280876" y="33.448">ds</tspan>
              </text>
            </g>
            <g id="Graphic_32">
              <path d="M 638 -615.9124 C 638 -621.703 637.4152 -622.4194 633.1431 -628.1501 L 633.098 -628.2094 C 628.8034 -634 628.7587 -634 624.3513 -634 C 618.4827 -634 591.95025 -634 591.95025 -634 L 591.95025 -581.8725 C 591.95025 -576.90195 595.9797 -572.8725 600.95025 -572.8725 L 629 -572.8725 C 633.9706 -572.8725 638 -576.90195 638 -581.8725 L 638 -615.9124 Z" fill="#c0ffc0"/>
              <path d="M 638 -615.9124 C 638 -621.703 637.4152 -622.4194 633.1431 -628.1501 L 633.098 -628.2094 C 628.8034 -634 628.7587 -634 624.3513 -634 C 618.4827 -634 591.95025 -634 591.95025 -634 L 591.95025 -581.8725 C 591.95025 -576.90195 595.9797 -572.8725 600.95025 -572.8725 L 629 -572.8725 C 633.9706 -572.8725 638 -576.90195 638 -581.8725 L 638 -615.9124 Z M 638 -616.2107 C 638 -621.703 637.9549 -621.703 628.7587 -621.703 L 628.7587 -621.703 C 628.7587 -633.9401 628.7587 -634 624.6212 -634" stroke="black" stroke-linecap="round" stroke-linejoin="round" stroke-width="1"/>
              <text transform="translate(596.95025 -610.60425)" fill="black">
                <tspan font-family="Helvetica Neue" font-size="12" fill="black" x=".9128756" y="11">Reads</tspan>
              </text>
            </g>
          </g>
        </g>
        <g id="Group_35">
          <g id="Graphic_39">
            <path d="M 576.5 -659 L 640.5 -659 C 645.4706 -659 649.5 -654.9706 649.5 -650 L 649.5 -569 C 649.5 -564.02944 645.4706 -560 640.5 -560 L 585.5 -560 C 580.52944 -560 576.5 -564.02944 576.5 -569 Z" fill="#ffffc0"/>
            <path d="M 576.5 -659 L 640.5 -659 C 645.4706 -659 649.5 -654.9706 649.5 -650 L 649.5 -569 C 649.5 -564.02944 645.4706 -560 640.5 -560 L 585.5 -560 C 580.52944 -560 576.5 -564.02944 576.5 -569 Z" stroke="black" stroke-linecap="round" stroke-linejoin="round" stroke-width="1"/>
            <text transform="translate(581.5 -654)" fill="black">
              <tspan font-family="Helvetica Neue" font-size="16" fill="black" x="4.38" y="15">Sample</tspan>
            </text>
          </g>
          <g id="Group_36">
            <g id="Graphic_38">
              <path d="M 633.04975 -609.0399 C 633.04975 -614.8305 632.4649 -615.5469 628.1929 -621.2776 L 628.14776 -621.3369 C 623.85316 -627.1275 623.8085 -627.1275 619.4011 -627.1275 C 613.5325 -627.1275 587 -627.1275 587 -627.1275 L 587 -575 C 587 -570.02944 591.02944 -566 596 -566 L 624.04975 -566 C 629.0203 -566 633.04975 -570.02944 633.04975 -575 L 633.04975 -609.0399 Z" fill="#c0ffc0"/>
              <path d="M 633.04975 -609.0399 C 633.04975 -614.8305 632.4649 -615.5469 628.1929 -621.2776 L 628.14776 -621.3369 C 623.85316 -627.1275 623.8085 -627.1275 619.4011 -627.1275 C 613.5325 -627.1275 587 -627.1275 587 -627.1275 L 587 -575 C 587 -570.02944 591.02944 -566 596 -566 L 624.04975 -566 C 629.0203 -566 633.04975 -570.02944 633.04975 -575 L 633.04975 -609.0399 Z M 633.04975 -609.3382 C 633.04975 -614.8305 633.0046 -614.8305 623.8085 -614.8305 L 623.8085 -614.8305 C 623.8085 -627.0676 623.8085 -627.1275 619.6709 -627.1275" stroke="black" stroke-linecap="round" stroke-linejoin="round" stroke-width="1"/>
              <text transform="translate(592 -615.01174)" fill="black">
                <tspan font-family="Helvetica Neue" font-size="16" fill="black" x="3.9528756" y="15">Rea</tspan>
                <tspan font-family="Helvetica Neue" font-size="16" fill="black" x="9.280876" y="33.448">ds</tspan>
              </text>
            </g>
            <g id="Graphic_37">
              <path d="M 639 -614.9124 C 639 -620.703 638.4152 -621.4194 634.1431 -627.1501 L 634.098 -627.2094 C 629.8034 -633 629.7587 -633 625.3513 -633 C 619.4827 -633 592.95025 -633 592.95025 -633 L 592.95025 -580.8725 C 592.95025 -575.90195 596.9797 -571.8725 601.95025 -571.8725 L 630 -571.8725 C 634.9706 -571.8725 639 -575.90195 639 -580.8725 L 639 -614.9124 Z" fill="#c0ffc0"/>
              <path d="M 639 -614.9124 C 639 -620.703 638.4152 -621.4194 634.1431 -627.1501 L 634.098 -627.2094 C 629.8034 -633 629.7587 -633 625.3513 -633 C 619.4827 -633 592.95025 -633 592.95025 -633 L 592.95025 -580.8725 C 592.95025 -575.90195 596.9797 -571.8725 601.95025 -571.8725 L 630 -571.8725 C 634.9706 -571.8725 639 -575.90195 639 -580.8725 L 639 -614.9124 Z M 639 -615.2107 C 639 -620.703 638.9549 -620.703 629.7587 -620.703 L 629.7587 -620.703 C 629.7587 -632.9401 629.7587 -633 625.6212 -633" stroke="black" stroke-linecap="round" stroke-linejoin="round" stroke-width="1"/>
              <text transform="translate(597.95025 -609.60425)" fill="black">
                <tspan font-family="Helvetica Neue" font-size="12" fill="black" x=".9128756" y="11">Reads</tspan>
              </text>
            </g>
          </g>
        </g>
        <g id="Group_40">
          <g id="Graphic_44">
            <path d="M 577.5 -658 L 641.5 -658 C 646.4706 -658 650.5 -653.9706 650.5 -649 L 650.5 -568 C 650.5 -563.02944 646.4706 -559 641.5 -559 L 586.5 -559 C 581.52944 -559 577.5 -563.02944 577.5 -568 Z" fill="#ffffc0"/>
            <path d="M 577.5 -658 L 641.5 -658 C 646.4706 -658 650.5 -653.9706 650.5 -649 L 650.5 -568 C 650.5 -563.02944 646.4706 -559 641.5 -559 L 586.5 -559 C 581.52944 -559 577.5 -563.02944 577.5 -568 Z" stroke="black" stroke-linecap="round" stroke-linejoin="round" stroke-width="1"/>
            <text transform="translate(582.5 -653)" fill="black">
              <tspan font-family="Helvetica Neue" font-size="16" fill="black" x="4.38" y="15">Sample</tspan>
            </text>
          </g>
          <g id="Group_41">
            <g id="Graphic_43">
              <path d="M 634.04975 -608.0399 C 634.04975 -613.8305 633.4649 -614.5469 629.1929 -620.2776 L 629.14776 -620.3369 C 624.85316 -626.1275 624.8085 -626.1275 620.4011 -626.1275 C 614.5325 -626.1275 588 -626.1275 588 -626.1275 L 588 -574 C 588 -569.02944 592.02944 -565 597 -565 L 625.04975 -565 C 630.0203 -565 634.04975 -569.02944 634.04975 -574 L 634.04975 -608.0399 Z" fill="#c0ffc0"/>
              <path d="M 634.04975 -608.0399 C 634.04975 -613.8305 633.4649 -614.5469 629.1929 -620.2776 L 629.14776 -620.3369 C 624.85316 -626.1275 624.8085 -626.1275 620.4011 -626.1275 C 614.5325 -626.1275 588 -626.1275 588 -626.1275 L 588 -574 C 588 -569.02944 592.02944 -565 597 -565 L 625.04975 -565 C 630.0203 -565 634.04975 -569.02944 634.04975 -574 L 634.04975 -608.0399 Z M 634.04975 -608.3382 C 634.04975 -613.8305 634.0046 -613.8305 624.8085 -613.8305 L 624.8085 -613.8305 C 624.8085 -626.0676 624.8085 -626.1275 620.6709 -626.1275" stroke="black" stroke-linecap="round" stroke-linejoin="round" stroke-width="1"/>
              <text transform="translate(593 -614.01174)" fill="black">
                <tspan font-family="Helvetica Neue" font-size="16" fill="black" x="3.9528756" y="15">Rea</tspan>
                <tspan font-family="Helvetica Neue" font-size="16" fill="black" x="9.280876" y="33.448">ds</tspan>
              </text>
            </g>
            <g id="Graphic_42">
              <path d="M 640 -613.9124 C 640 -619.703 639.4152 -620.4194 635.1431 -626.1501 L 635.098 -626.2094 C 630.8034 -632 630.7587 -632 626.3513 -632 C 620.4827 -632 593.95025 -632 593.95025 -632 L 593.95025 -579.8725 C 593.95025 -574.90195 597.9797 -570.8725 602.95025 -570.8725 L 631 -570.8725 C 635.9706 -570.8725 640 -574.90195 640 -579.8725 L 640 -613.9124 Z" fill="#c0ffc0"/>
              <path d="M 640 -613.9124 C 640 -619.703 639.4152 -620.4194 635.1431 -626.1501 L 635.098 -626.2094 C 630.8034 -632 630.7587 -632 626.3513 -632 C 620.4827 -632 593.95025 -632 593.95025 -632 L 593.95025 -579.8725 C 593.95025 -574.90195 597.9797 -570.8725 602.95025 -570.8725 L 631 -570.8725 C 635.9706 -570.8725 640 -574.90195 640 -579.8725 L 640 -613.9124 Z M 640 -614.2107 C 640 -619.703 639.9549 -619.703 630.7587 -619.703 L 630.7587 -619.703 C 630.7587 -631.9401 630.7587 -632 626.6212 -632" stroke="black" stroke-linecap="round" stroke-linejoin="round" stroke-width="1"/>
              <text transform="translate(598.95025 -608.60425)" fill="black">
                <tspan font-family="Helvetica Neue" font-size="12" fill="black" x=".9128756" y="11">Reads</tspan>
              </text>
            </g>
          </g>
        </g>
        <g id="Group_45">
          <g id="Graphic_49">
            <path d="M 578.5 -657 L 642.5 -657 C 647.4706 -657 651.5 -652.9706 651.5 -648 L 651.5 -567 C 651.5 -562.02944 647.4706 -558 642.5 -558 L 587.5 -558 C 582.52944 -558 578.5 -562.02944 578.5 -567 Z" fill="#ffffc0"/>
            <path d="M 578.5 -657 L 642.5 -657 C 647.4706 -657 651.5 -652.9706 651.5 -648 L 651.5 -567 C 651.5 -562.02944 647.4706 -558 642.5 -558 L 587.5 -558 C 582.52944 -558 578.5 -562.02944 578.5 -567 Z" stroke="black" stroke-linecap="round" stroke-linejoin="round" stroke-width="1"/>
            <text transform="translate(583.5 -652)" fill="black">
              <tspan font-family="Helvetica Neue" font-size="16" fill="black" x="4.38" y="15">Sample</tspan>
            </text>
          </g>
          <g id="Group_46">
            <g id="Graphic_48">
              <path d="M 635.04975 -607.0399 C 635.04975 -612.8305 634.4649 -613.5469 630.1929 -619.2776 L 630.14776 -619.3369 C 625.85316 -625.1275 625.8085 -625.1275 621.4011 -625.1275 C 615.5325 -625.1275 589 -625.1275 589 -625.1275 L 589 -573 C 589 -568.02944 593.02944 -564 598 -564 L 626.04975 -564 C 631.0203 -564 635.04975 -568.02944 635.04975 -573 L 635.04975 -607.0399 Z" fill="#c0ffc0"/>
              <path d="M 635.04975 -607.0399 C 635.04975 -612.8305 634.4649 -613.5469 630.1929 -619.2776 L 630.14776 -619.3369 C 625.85316 -625.1275 625.8085 -625.1275 621.4011 -625.1275 C 615.5325 -625.1275 589 -625.1275 589 -625.1275 L 589 -573 C 589 -568.02944 593.02944 -564 598 -564 L 626.04975 -564 C 631.0203 -564 635.04975 -568.02944 635.04975 -573 L 635.04975 -607.0399 Z M 635.04975 -607.3382 C 635.04975 -612.8305 635.0046 -612.8305 625.8085 -612.8305 L 625.8085 -612.8305 C 625.8085 -625.0676 625.8085 -625.1275 621.6709 -625.1275" stroke="black" stroke-linecap="round" stroke-linejoin="round" stroke-width="1"/>
              <text transform="translate(594 -613.01174)" fill="black">
                <tspan font-family="Helvetica Neue" font-size="16" fill="black" x="3.9528756" y="15">Rea</tspan>
                <tspan font-family="Helvetica Neue" font-size="16" fill="black" x="9.280876" y="33.448">ds</tspan>
              </text>
            </g>
            <g id="Graphic_47">
              <path d="M 641 -612.9124 C 641 -618.703 640.4152 -619.4194 636.1431 -625.1501 L 636.098 -625.2094 C 631.8034 -631 631.7587 -631 627.3513 -631 C 621.4827 -631 594.95025 -631 594.95025 -631 L 594.95025 -578.8725 C 594.95025 -573.90195 598.9797 -569.8725 603.95025 -569.8725 L 632 -569.8725 C 636.9706 -569.8725 641 -573.90195 641 -578.8725 L 641 -612.9124 Z" fill="#c0ffc0"/>
              <path d="M 641 -612.9124 C 641 -618.703 640.4152 -619.4194 636.1431 -625.1501 L 636.098 -625.2094 C 631.8034 -631 631.7587 -631 627.3513 -631 C 621.4827 -631 594.95025 -631 594.95025 -631 L 594.95025 -578.8725 C 594.95025 -573.90195 598.9797 -569.8725 603.95025 -569.8725 L 632 -569.8725 C 636.9706 -569.8725 641 -573.90195 641 -578.8725 L 641 -612.9124 Z M 641 -613.2107 C 641 -618.703 640.9549 -618.703 631.7587 -618.703 L 631.7587 -618.703 C 631.7587 -630.9401 631.7587 -631 627.6212 -631" stroke="black" stroke-linecap="round" stroke-linejoin="round" stroke-width="1"/>
              <text transform="translate(599.95025 -607.60425)" fill="black">
                <tspan font-family="Helvetica Neue" font-size="12" fill="black" x=".9128756" y="11">Reads</tspan>
              </text>
            </g>
          </g>
        </g>
        <g id="Group_50">
          <g id="Graphic_54">
            <path d="M 579.5 -656 L 643.5 -656 C 648.4706 -656 652.5 -651.9706 652.5 -647 L 652.5 -566 C 652.5 -561.02944 648.4706 -557 643.5 -557 L 588.5 -557 C 583.52944 -557 579.5 -561.02944 579.5 -566 Z" fill="#ffffc0"/>
            <path d="M 579.5 -656 L 643.5 -656 C 648.4706 -656 652.5 -651.9706 652.5 -647 L 652.5 -566 C 652.5 -561.02944 648.4706 -557 643.5 -557 L 588.5 -557 C 583.52944 -557 579.5 -561.02944 579.5 -566 Z" stroke="black" stroke-linecap="round" stroke-linejoin="round" stroke-width="1"/>
            <text transform="translate(584.5 -651)" fill="black">
              <tspan font-family="Helvetica Neue" font-size="16" fill="black" x="4.38" y="15">Sample</tspan>
            </text>
          </g>
          <g id="Group_51">
            <g id="Graphic_53">
              <path d="M 636.04975 -606.0399 C 636.04975 -611.8305 635.4649 -612.5469 631.1929 -618.2776 L 631.14776 -618.3369 C 626.85316 -624.1275 626.8085 -624.1275 622.4011 -624.1275 C 616.5325 -624.1275 590 -624.1275 590 -624.1275 L 590 -572 C 590 -567.02944 594.02944 -563 599 -563 L 627.04975 -563 C 632.0203 -563 636.04975 -567.02944 636.04975 -572 L 636.04975 -606.0399 Z" fill="#c0ffc0"/>
              <path d="M 636.04975 -606.0399 C 636.04975 -611.8305 635.4649 -612.5469 631.1929 -618.2776 L 631.14776 -618.3369 C 626.85316 -624.1275 626.8085 -624.1275 622.4011 -624.1275 C 616.5325 -624.1275 590 -624.1275 590 -624.1275 L 590 -572 C 590 -567.02944 594.02944 -563 599 -563 L 627.04975 -563 C 632.0203 -563 636.04975 -567.02944 636.04975 -572 L 636.04975 -606.0399 Z M 636.04975 -606.3382 C 636.04975 -611.8305 636.0046 -611.8305 626.8085 -611.8305 L 626.8085 -611.8305 C 626.8085 -624.0676 626.8085 -624.1275 622.6709 -624.1275" stroke="black" stroke-linecap="round" stroke-linejoin="round" stroke-width="1"/>
              <text transform="translate(595 -612.01174)" fill="black">
                <tspan font-family="Helvetica Neue" font-size="16" fill="black" x="3.9528756" y="15">Rea</tspan>
                <tspan font-family="Helvetica Neue" font-size="16" fill="black" x="9.280876" y="33.448">ds</tspan>
              </text>
            </g>
            <g id="Graphic_52">
              <path d="M 642 -611.9124 C 642 -617.703 641.4152 -618.4194 637.1431 -624.1501 L 637.098 -624.2094 C 632.8034 -630 632.7587 -630 628.3513 -630 C 622.4827 -630 595.95025 -630 595.95025 -630 L 595.95025 -577.8725 C 595.95025 -572.90195 599.9797 -568.8725 604.95025 -568.8725 L 633 -568.8725 C 637.9706 -568.8725 642 -572.90195 642 -577.8725 L 642 -611.9124 Z" fill="#c0ffc0"/>
              <path d="M 642 -611.9124 C 642 -617.703 641.4152 -618.4194 637.1431 -624.1501 L 637.098 -624.2094 C 632.8034 -630 632.7587 -630 628.3513 -630 C 622.4827 -630 595.95025 -630 595.95025 -630 L 595.95025 -577.8725 C 595.95025 -572.90195 599.9797 -568.8725 604.95025 -568.8725 L 633 -568.8725 C 637.9706 -568.8725 642 -572.90195 642 -577.8725 L 642 -611.9124 Z M 642 -612.2107 C 642 -617.703 641.9549 -617.703 632.7587 -617.703 L 632.7587 -617.703 C 632.7587 -629.9401 632.7587 -630 628.6212 -630" stroke="black" stroke-linecap="round" stroke-linejoin="round" stroke-width="1"/>
              <text transform="translate(600.95025 -606.60425)" fill="black">
                <tspan font-family="Helvetica Neue" font-size="12" fill="black" x=".9128756" y="11">Reads</tspan>
              </text>
            </g>
          </g>
        </g>
        <g id="Group_55">
          <g id="Graphic_59">
            <path d="M 580.5 -655 L 644.5 -655 C 649.4706 -655 653.5 -650.9706 653.5 -646 L 653.5 -565 C 653.5 -560.02944 649.4706 -556 644.5 -556 L 589.5 -556 C 584.52944 -556 580.5 -560.02944 580.5 -565 Z" fill="#ffffc0"/>
            <path d="M 580.5 -655 L 644.5 -655 C 649.4706 -655 653.5 -650.9706 653.5 -646 L 653.5 -565 C 653.5 -560.02944 649.4706 -556 644.5 -556 L 589.5 -556 C 584.52944 -556 580.5 -560.02944 580.5 -565 Z" stroke="black" stroke-linecap="round" stroke-linejoin="round" stroke-width="1"/>
            <text transform="translate(585.5 -650)" fill="black">
              <tspan font-family="Helvetica Neue" font-size="16" fill="black" x="4.38" y="15">Sample</tspan>
            </text>
          </g>
          <g id="Group_56">
            <g id="Graphic_58">
              <path d="M 637.04975 -605.0399 C 637.04975 -610.8305 636.4649 -611.5469 632.1929 -617.2776 L 632.14776 -617.3369 C 627.85316 -623.1275 627.8085 -623.1275 623.4011 -623.1275 C 617.5325 -623.1275 591 -623.1275 591 -623.1275 L 591 -571 C 591 -566.02944 595.02944 -562 600 -562 L 628.04975 -562 C 633.0203 -562 637.04975 -566.02944 637.04975 -571 L 637.04975 -605.0399 Z" fill="#c0ffc0"/>
              <path d="M 637.04975 -605.0399 C 637.04975 -610.8305 636.4649 -611.5469 632.1929 -617.2776 L 632.14776 -617.3369 C 627.85316 -623.1275 627.8085 -623.1275 623.4011 -623.1275 C 617.5325 -623.1275 591 -623.1275 591 -623.1275 L 591 -571 C 591 -566.02944 595.02944 -562 600 -562 L 628.04975 -562 C 633.0203 -562 637.04975 -566.02944 637.04975 -571 L 637.04975 -605.0399 Z M 637.04975 -605.3382 C 637.04975 -610.8305 637.0046 -610.8305 627.8085 -610.8305 L 627.8085 -610.8305 C 627.8085 -623.0676 627.8085 -623.1275 623.6709 -623.1275" stroke="black" stroke-linecap="round" stroke-linejoin="round" stroke-width="1"/>
              <text transform="translate(596 -611.01174)" fill="black">
                <tspan font-family="Helvetica Neue" font-size="16" fill="black" x="3.9528756" y="15">Rea</tspan>
                <tspan font-family="Helvetica Neue" font-size="16" fill="black" x="9.280876" y="33.448">ds</tspan>
              </text>
            </g>
            <g id="Graphic_57">
              <path d="M 643 -610.9124 C 643 -616.703 642.4152 -617.4194 638.1431 -623.1501 L 638.098 -623.2094 C 633.8034 -629 633.7587 -629 629.3513 -629 C 623.4827 -629 596.95025 -629 596.95025 -629 L 596.95025 -576.8725 C 596.95025 -571.90195 600.9797 -567.8725 605.95025 -567.8725 L 634 -567.8725 C 638.9706 -567.8725 643 -571.90195 643 -576.8725 L 643 -610.9124 Z" fill="#c0ffc0"/>
              <path d="M 643 -610.9124 C 643 -616.703 642.4152 -617.4194 638.1431 -623.1501 L 638.098 -623.2094 C 633.8034 -629 633.7587 -629 629.3513 -629 C 623.4827 -629 596.95025 -629 596.95025 -629 L 596.95025 -576.8725 C 596.95025 -571.90195 600.9797 -567.8725 605.95025 -567.8725 L 634 -567.8725 C 638.9706 -567.8725 643 -571.90195 643 -576.8725 L 643 -610.9124 Z M 643 -611.2107 C 643 -616.703 642.9549 -616.703 633.7587 -616.703 L 633.7587 -616.703 C 633.7587 -628.9401 633.7587 -629 629.6212 -629" stroke="black" stroke-linecap="round" stroke-linejoin="round" stroke-width="1"/>
              <text transform="translate(601.95025 -605.60425)" fill="black">
                <tspan font-family="Helvetica Neue" font-size="12" fill="black" x=".9128756" y="11">Reads</tspan>
              </text>
            </g>
          </g>
        </g>
        <g id="Group_60">
          <g id="Graphic_64">
            <path d="M 581.5 -654 L 645.5 -654 C 650.4706 -654 654.5 -649.9706 654.5 -645 L 654.5 -564 C 654.5 -559.02944 650.4706 -555 645.5 -555 L 590.5 -555 C 585.52944 -555 581.5 -559.02944 581.5 -564 Z" fill="#ffffc0"/>
            <path d="M 581.5 -654 L 645.5 -654 C 650.4706 -654 654.5 -649.9706 654.5 -645 L 654.5 -564 C 654.5 -559.02944 650.4706 -555 645.5 -555 L 590.5 -555 C 585.52944 -555 581.5 -559.02944 581.5 -564 Z" stroke="black" stroke-linecap="round" stroke-linejoin="round" stroke-width="1"/>
            <text transform="translate(586.5 -649)" fill="black">
              <tspan font-family="Helvetica Neue" font-size="16" fill="black" x="4.38" y="15">Sample</tspan>
            </text>
          </g>
          <g id="Group_61">
            <g id="Graphic_63">
              <path d="M 638.04975 -604.0399 C 638.04975 -609.8305 637.4649 -610.5469 633.1929 -616.2776 L 633.14776 -616.3369 C 628.85316 -622.1275 628.8085 -622.1275 624.4011 -622.1275 C 618.5325 -622.1275 592 -622.1275 592 -622.1275 L 592 -570 C 592 -565.02944 596.02944 -561 601 -561 L 629.04975 -561 C 634.0203 -561 638.04975 -565.02944 638.04975 -570 L 638.04975 -604.0399 Z" fill="#c0ffc0"/>
              <path d="M 638.04975 -604.0399 C 638.04975 -609.8305 637.4649 -610.5469 633.1929 -616.2776 L 633.14776 -616.3369 C 628.85316 -622.1275 628.8085 -622.1275 624.4011 -622.1275 C 618.5325 -622.1275 592 -622.1275 592 -622.1275 L 592 -570 C 592 -565.02944 596.02944 -561 601 -561 L 629.04975 -561 C 634.0203 -561 638.04975 -565.02944 638.04975 -570 L 638.04975 -604.0399 Z M 638.04975 -604.3382 C 638.04975 -609.8305 638.0046 -609.8305 628.8085 -609.8305 L 628.8085 -609.8305 C 628.8085 -622.0676 628.8085 -622.1275 624.6709 -622.1275" stroke="black" stroke-linecap="round" stroke-linejoin="round" stroke-width="1"/>
              <text transform="translate(597 -610.01174)" fill="black">
                <tspan font-family="Helvetica Neue" font-size="16" fill="black" x="3.9528756" y="15">Rea</tspan>
                <tspan font-family="Helvetica Neue" font-size="16" fill="black" x="9.280876" y="33.448">ds</tspan>
              </text>
            </g>
            <g id="Graphic_62">
              <path d="M 644 -609.9124 C 644 -615.703 643.4152 -616.4194 639.1431 -622.1501 L 639.098 -622.2094 C 634.8034 -628 634.7587 -628 630.3513 -628 C 624.4827 -628 597.95025 -628 597.95025 -628 L 597.95025 -575.8725 C 597.95025 -570.90195 601.9797 -566.8725 606.95025 -566.8725 L 635 -566.8725 C 639.9706 -566.8725 644 -570.90195 644 -575.8725 L 644 -609.9124 Z" fill="#c0ffc0"/>
              <path d="M 644 -609.9124 C 644 -615.703 643.4152 -616.4194 639.1431 -622.1501 L 639.098 -622.2094 C 634.8034 -628 634.7587 -628 630.3513 -628 C 624.4827 -628 597.95025 -628 597.95025 -628 L 597.95025 -575.8725 C 597.95025 -570.90195 601.9797 -566.8725 606.95025 -566.8725 L 635 -566.8725 C 639.9706 -566.8725 644 -570.90195 644 -575.8725 L 644 -609.9124 Z M 644 -610.2107 C 644 -615.703 643.9549 -615.703 634.7587 -615.703 L 634.7587 -615.703 C 634.7587 -627.9401 634.7587 -628 630.6212 -628" stroke="black" stroke-linecap="round" stroke-linejoin="round" stroke-width="1"/>
              <text transform="translate(602.95025 -604.60425)" fill="black">
                <tspan font-family="Helvetica Neue" font-size="12" fill="black" x=".9128756" y="11">Reads</tspan>
              </text>
            </g>
          </g>
        </g>
        <g id="Group_65">
          <g id="Graphic_69">
            <path d="M 582.5 -653 L 646.5 -653 C 651.4706 -653 655.5 -648.9706 655.5 -644 L 655.5 -563 C 655.5 -558.02944 651.4706 -554 646.5 -554 L 591.5 -554 C 586.52944 -554 582.5 -558.02944 582.5 -563 Z" fill="#ffffc0"/>
            <path d="M 582.5 -653 L 646.5 -653 C 651.4706 -653 655.5 -648.9706 655.5 -644 L 655.5 -563 C 655.5 -558.02944 651.4706 -554 646.5 -554 L 591.5 -554 C 586.52944 -554 582.5 -558.02944 582.5 -563 Z" stroke="black" stroke-linecap="round" stroke-linejoin="round" stroke-width="1"/>
            <text transform="translate(587.5 -648)" fill="black">
              <tspan font-family="Helvetica Neue" font-size="16" fill="black" x="4.38" y="15">Sample</tspan>
            </text>
          </g>
          <g id="Group_66">
            <g id="Graphic_68">
              <path d="M 639.04975 -603.0399 C 639.04975 -608.8305 638.4649 -609.5469 634.1929 -615.2776 L 634.14776 -615.3369 C 629.85316 -621.1275 629.8085 -621.1275 625.4011 -621.1275 C 619.5325 -621.1275 593 -621.1275 593 -621.1275 L 593 -569 C 593 -564.02944 597.02944 -560 602 -560 L 630.04975 -560 C 635.0203 -560 639.04975 -564.02944 639.04975 -569 L 639.04975 -603.0399 Z" fill="#c0ffc0"/>
              <path d="M 639.04975 -603.0399 C 639.04975 -608.8305 638.4649 -609.5469 634.1929 -615.2776 L 634.14776 -615.3369 C 629.85316 -621.1275 629.8085 -621.1275 625.4011 -621.1275 C 619.5325 -621.1275 593 -621.1275 593 -621.1275 L 593 -569 C 593 -564.02944 597.02944 -560 602 -560 L 630.04975 -560 C 635.0203 -560 639.04975 -564.02944 639.04975 -569 L 639.04975 -603.0399 Z M 639.04975 -603.3382 C 639.04975 -608.8305 639.0046 -608.8305 629.8085 -608.8305 L 629.8085 -608.8305 C 629.8085 -621.0676 629.8085 -621.1275 625.6709 -621.1275" stroke="black" stroke-linecap="round" stroke-linejoin="round" stroke-width="1"/>
              <text transform="translate(598 -609.01174)" fill="black">
                <tspan font-family="Helvetica Neue" font-size="16" fill="black" x="3.9528756" y="15">Rea</tspan>
                <tspan font-family="Helvetica Neue" font-size="16" fill="black" x="9.280876" y="33.448">ds</tspan>
              </text>
            </g>
            <g id="Graphic_67">
              <path d="M 645 -608.9124 C 645 -614.703 644.4152 -615.4194 640.1431 -621.1501 L 640.098 -621.2094 C 635.8034 -627 635.7587 -627 631.3513 -627 C 625.4827 -627 598.95025 -627 598.95025 -627 L 598.95025 -574.8725 C 598.95025 -569.90195 602.9797 -565.8725 607.95025 -565.8725 L 636 -565.8725 C 640.9706 -565.8725 645 -569.90195 645 -574.8725 L 645 -608.9124 Z" fill="#c0ffc0"/>
              <path d="M 645 -608.9124 C 645 -614.703 644.4152 -615.4194 640.1431 -621.1501 L 640.098 -621.2094 C 635.8034 -627 635.7587 -627 631.3513 -627 C 625.4827 -627 598.95025 -627 598.95025 -627 L 598.95025 -574.8725 C 598.95025 -569.90195 602.9797 -565.8725 607.95025 -565.8725 L 636 -565.8725 C 640.9706 -565.8725 645 -569.90195 645 -574.8725 L 645 -608.9124 Z M 645 -609.2107 C 645 -614.703 644.9549 -614.703 635.7587 -614.703 L 635.7587 -614.703 C 635.7587 -626.9401 635.7587 -627 631.6212 -627" stroke="black" stroke-linecap="round" stroke-linejoin="round" stroke-width="1"/>
              <text transform="translate(603.95025 -603.60425)" fill="black">
                <tspan font-family="Helvetica Neue" font-size="12" fill="black" x=".9128756" y="11">Reads</tspan>
              </text>
            </g>
          </g>
        </g>
        <g id="Group_70">
          <g id="Graphic_74">
            <path d="M 583.5 -652 L 647.5 -652 C 652.4706 -652 656.5 -647.9706 656.5 -643 L 656.5 -562 C 656.5 -557.02944 652.4706 -553 647.5 -553 L 592.5 -553 C 587.52944 -553 583.5 -557.02944 583.5 -562 Z" fill="#ffffc0"/>
            <path d="M 583.5 -652 L 647.5 -652 C 652.4706 -652 656.5 -647.9706 656.5 -643 L 656.5 -562 C 656.5 -557.02944 652.4706 -553 647.5 -553 L 592.5 -553 C 587.52944 -553 583.5 -557.02944 583.5 -562 Z" stroke="black" stroke-linecap="round" stroke-linejoin="round" stroke-width="1"/>
            <text transform="translate(588.5 -647)" fill="black">
              <tspan font-family="Helvetica Neue" font-size="16" fill="black" x="4.38" y="15">Sample</tspan>
            </text>
          </g>
          <g id="Group_71">
            <g id="Graphic_73">
              <path d="M 640.04975 -602.0399 C 640.04975 -607.8305 639.4649 -608.5469 635.1929 -614.2776 L 635.14776 -614.3369 C 630.85316 -620.1275 630.8085 -620.1275 626.4011 -620.1275 C 620.5325 -620.1275 594 -620.1275 594 -620.1275 L 594 -568 C 594 -563.02944 598.02944 -559 603 -559 L 631.04975 -559 C 636.0203 -559 640.04975 -563.02944 640.04975 -568 L 640.04975 -602.0399 Z" fill="#c0ffc0"/>
              <path d="M 640.04975 -602.0399 C 640.04975 -607.8305 639.4649 -608.5469 635.1929 -614.2776 L 635.14776 -614.3369 C 630.85316 -620.1275 630.8085 -620.1275 626.4011 -620.1275 C 620.5325 -620.1275 594 -620.1275 594 -620.1275 L 594 -568 C 594 -563.02944 598.02944 -559 603 -559 L 631.04975 -559 C 636.0203 -559 640.04975 -563.02944 640.04975 -568 L 640.04975 -602.0399 Z M 640.04975 -602.3382 C 640.04975 -607.8305 640.0046 -607.8305 630.8085 -607.8305 L 630.8085 -607.8305 C 630.8085 -620.0676 630.8085 -620.1275 626.6709 -620.1275" stroke="black" stroke-linecap="round" stroke-linejoin="round" stroke-width="1"/>
              <text transform="translate(599 -608.01174)" fill="black">
                <tspan font-family="Helvetica Neue" font-size="16" fill="black" x="3.9528756" y="15">Rea</tspan>
                <tspan font-family="Helvetica Neue" font-size="16" fill="black" x="9.280876" y="33.448">ds</tspan>
              </text>
            </g>
            <g id="Graphic_72">
              <path d="M 646 -607.9124 C 646 -613.703 645.4152 -614.4194 641.1431 -620.1501 L 641.098 -620.2094 C 636.8034 -626 636.7587 -626 632.3513 -626 C 626.4827 -626 599.95025 -626 599.95025 -626 L 599.95025 -573.8725 C 599.95025 -568.90195 603.9797 -564.8725 608.95025 -564.8725 L 637 -564.8725 C 641.9706 -564.8725 646 -568.90195 646 -573.8725 L 646 -607.9124 Z" fill="#c0ffc0"/>
              <path d="M 646 -607.9124 C 646 -613.703 645.4152 -614.4194 641.1431 -620.1501 L 641.098 -620.2094 C 636.8034 -626 636.7587 -626 632.3513 -626 C 626.4827 -626 599.95025 -626 599.95025 -626 L 599.95025 -573.8725 C 599.95025 -568.90195 603.9797 -564.8725 608.95025 -564.8725 L 637 -564.8725 C 641.9706 -564.8725 646 -568.90195 646 -573.8725 L 646 -607.9124 Z M 646 -608.2107 C 646 -613.703 645.9549 -613.703 636.7587 -613.703 L 636.7587 -613.703 C 636.7587 -625.9401 636.7587 -626 632.6212 -626" stroke="black" stroke-linecap="round" stroke-linejoin="round" stroke-width="1"/>
              <text transform="translate(604.95025 -602.60425)" fill="black">
                <tspan font-family="Helvetica Neue" font-size="12" fill="black" x=".9128756" y="11">Reads</tspan>
              </text>
            </g>
          </g>
        </g>
        <g id="Group_75">
          <g id="Graphic_79">
            <path d="M 584.5 -651 L 648.5 -651 C 653.4706 -651 657.5 -646.9706 657.5 -642 L 657.5 -561 C 657.5 -556.02944 653.4706 -552 648.5 -552 L 593.5 -552 C 588.52944 -552 584.5 -556.02944 584.5 -561 Z" fill="#ffffc0"/>
            <path d="M 584.5 -651 L 648.5 -651 C 653.4706 -651 657.5 -646.9706 657.5 -642 L 657.5 -561 C 657.5 -556.02944 653.4706 -552 648.5 -552 L 593.5 -552 C 588.52944 -552 584.5 -556.02944 584.5 -561 Z" stroke="black" stroke-linecap="round" stroke-linejoin="round" stroke-width="1"/>
            <text transform="translate(589.5 -646)" fill="black">
              <tspan font-family="Helvetica Neue" font-size="16" fill="black" x="4.38" y="15">Sample</tspan>
            </text>
          </g>
          <g id="Group_76">
            <g id="Graphic_78">
              <path d="M 641.04975 -601.0399 C 641.04975 -606.8305 640.4649 -607.5469 636.1929 -613.2776 L 636.14776 -613.3369 C 631.85316 -619.1275 631.8085 -619.1275 627.4011 -619.1275 C 621.5325 -619.1275 595 -619.1275 595 -619.1275 L 595 -567 C 595 -562.02944 599.02944 -558 604 -558 L 632.04975 -558 C 637.0203 -558 641.04975 -562.02944 641.04975 -567 L 641.04975 -601.0399 Z" fill="#c0ffc0"/>
              <path d="M 641.04975 -601.0399 C 641.04975 -606.8305 640.4649 -607.5469 636.1929 -613.2776 L 636.14776 -613.3369 C 631.85316 -619.1275 631.8085 -619.1275 627.4011 -619.1275 C 621.5325 -619.1275 595 -619.1275 595 -619.1275 L 595 -567 C 595 -562.02944 599.02944 -558 604 -558 L 632.04975 -558 C 637.0203 -558 641.04975 -562.02944 641.04975 -567 L 641.04975 -601.0399 Z M 641.04975 -601.3382 C 641.04975 -606.8305 641.0046 -606.8305 631.8085 -606.8305 L 631.8085 -606.8305 C 631.8085 -619.0676 631.8085 -619.1275 627.6709 -619.1275" stroke="black" stroke-linecap="round" stroke-linejoin="round" stroke-width="1"/>
              <text transform="translate(600 -607.01174)" fill="black">
                <tspan font-family="Helvetica Neue" font-size="16" fill="black" x="3.9528756" y="15">Rea</tspan>
                <tspan font-family="Helvetica Neue" font-size="16" fill="black" x="9.280876" y="33.448">ds</tspan>
              </text>
            </g>
            <g id="Graphic_77">
              <path d="M 647 -606.9124 C 647 -612.703 646.4152 -613.4194 642.1431 -619.1501 L 642.098 -619.2094 C 637.8034 -625 637.7587 -625 633.3513 -625 C 627.4827 -625 600.95025 -625 600.95025 -625 L 600.95025 -572.8725 C 600.95025 -567.90195 604.9797 -563.8725 609.95025 -563.8725 L 638 -563.8725 C 642.9706 -563.8725 647 -567.90195 647 -572.8725 L 647 -606.9124 Z" fill="#c0ffc0"/>
              <path d="M 647 -606.9124 C 647 -612.703 646.4152 -613.4194 642.1431 -619.1501 L 642.098 -619.2094 C 637.8034 -625 637.7587 -625 633.3513 -625 C 627.4827 -625 600.95025 -625 600.95025 -625 L 600.95025 -572.8725 C 600.95025 -567.90195 604.9797 -563.8725 609.95025 -563.8725 L 638 -563.8725 C 642.9706 -563.8725 647 -567.90195 647 -572.8725 L 647 -606.9124 Z M 647 -607.2107 C 647 -612.703 646.9549 -612.703 637.7587 -612.703 L 637.7587 -612.703 C 637.7587 -624.9401 637.7587 -625 633.6212 -625" stroke="black" stroke-linecap="round" stroke-linejoin="round" stroke-width="1"/>
              <text transform="translate(605.95025 -601.60425)" fill="black">
                <tspan font-family="Helvetica Neue" font-size="12" fill="black" x=".9128756" y="11">Reads</tspan>
              </text>
            </g>
          </g>
        </g>
        <g id="Group_80">
          <g id="Graphic_84">
            <path d="M 585.5 -650 L 649.5 -650 C 654.4706 -650 658.5 -645.9706 658.5 -641 L 658.5 -560 C 658.5 -555.02944 654.4706 -551 649.5 -551 L 594.5 -551 C 589.52944 -551 585.5 -555.02944 585.5 -560 Z" fill="#ffffc0"/>
            <path d="M 585.5 -650 L 649.5 -650 C 654.4706 -650 658.5 -645.9706 658.5 -641 L 658.5 -560 C 658.5 -555.02944 654.4706 -551 649.5 -551 L 594.5 -551 C 589.52944 -551 585.5 -555.02944 585.5 -560 Z" stroke="black" stroke-linecap="round" stroke-linejoin="round" stroke-width="1"/>
            <text transform="translate(590.5 -645)" fill="black">
              <tspan font-family="Helvetica Neue" font-size="16" fill="black" x="4.38" y="15">Sample</tspan>
            </text>
          </g>
          <g id="Group_81">
            <g id="Graphic_83">
              <path d="M 642.04975 -600.0399 C 642.04975 -605.8305 641.4649 -606.5469 637.1929 -612.2776 L 637.14776 -612.3369 C 632.85316 -618.1275 632.8085 -618.1275 628.4011 -618.1275 C 622.5325 -618.1275 596 -618.1275 596 -618.1275 L 596 -566 C 596 -561.02944 600.02944 -557 605 -557 L 633.04975 -557 C 638.0203 -557 642.04975 -561.02944 642.04975 -566 L 642.04975 -600.0399 Z" fill="#c0ffc0"/>
              <path d="M 642.04975 -600.0399 C 642.04975 -605.8305 641.4649 -606.5469 637.1929 -612.2776 L 637.14776 -612.3369 C 632.85316 -618.1275 632.8085 -618.1275 628.4011 -618.1275 C 622.5325 -618.1275 596 -618.1275 596 -618.1275 L 596 -566 C 596 -561.02944 600.02944 -557 605 -557 L 633.04975 -557 C 638.0203 -557 642.04975 -561.02944 642.04975 -566 L 642.04975 -600.0399 Z M 642.04975 -600.3382 C 642.04975 -605.8305 642.0046 -605.8305 632.8085 -605.8305 L 632.8085 -605.8305 C 632.8085 -618.0676 632.8085 -618.1275 628.6709 -618.1275" stroke="black" stroke-linecap="round" stroke-linejoin="round" stroke-width="1"/>
              <text transform="translate(601 -606.01174)" fill="black">
                <tspan font-family="Helvetica Neue" font-size="16" fill="black" x="3.9528756" y="15">Rea</tspan>
                <tspan font-family="Helvetica Neue" font-size="16" fill="black" x="9.280876" y="33.448">ds</tspan>
              </text>
            </g>
            <g id="Graphic_82">
              <path d="M 648 -605.9124 C 648 -611.703 647.4152 -612.4194 643.1431 -618.1501 L 643.098 -618.2094 C 638.8034 -624 638.7587 -624 634.3513 -624 C 628.4827 -624 601.95025 -624 601.95025 -624 L 601.95025 -571.8725 C 601.95025 -566.90195 605.9797 -562.8725 610.95025 -562.8725 L 639 -562.8725 C 643.9706 -562.8725 648 -566.90195 648 -571.8725 L 648 -605.9124 Z" fill="#c0ffc0"/>
              <path d="M 648 -605.9124 C 648 -611.703 647.4152 -612.4194 643.1431 -618.1501 L 643.098 -618.2094 C 638.8034 -624 638.7587 -624 634.3513 -624 C 628.4827 -624 601.95025 -624 601.95025 -624 L 601.95025 -571.8725 C 601.95025 -566.90195 605.9797 -562.8725 610.95025 -562.8725 L 639 -562.8725 C 643.9706 -562.8725 648 -566.90195 648 -571.8725 L 648 -605.9124 Z M 648 -606.2107 C 648 -611.703 647.9549 -611.703 638.7587 -611.703 L 638.7587 -611.703 C 638.7587 -623.9401 638.7587 -624 634.6212 -624" stroke="black" stroke-linecap="round" stroke-linejoin="round" stroke-width="1"/>
              <text transform="translate(606.95025 -600.60425)" fill="black">
                <tspan font-family="Helvetica Neue" font-size="12" fill="black" x=".9128756" y="11">Reads</tspan>
              </text>
            </g>
          </g>
        </g>
        <g id="Group_85">
          <g id="Graphic_89">
            <path d="M 586.5 -649 L 650.5 -649 C 655.4706 -649 659.5 -644.9706 659.5 -640 L 659.5 -559 C 659.5 -554.02944 655.4706 -550 650.5 -550 L 595.5 -550 C 590.52944 -550 586.5 -554.02944 586.5 -559 Z" fill="#ffffc0"/>
            <path d="M 586.5 -649 L 650.5 -649 C 655.4706 -649 659.5 -644.9706 659.5 -640 L 659.5 -559 C 659.5 -554.02944 655.4706 -550 650.5 -550 L 595.5 -550 C 590.52944 -550 586.5 -554.02944 586.5 -559 Z" stroke="black" stroke-linecap="round" stroke-linejoin="round" stroke-width="1"/>
            <text transform="translate(591.5 -644)" fill="black">
              <tspan font-family="Helvetica Neue" font-size="16" fill="black" x="4.38" y="15">Sample</tspan>
            </text>
          </g>
          <g id="Group_86">
            <g id="Graphic_88">
              <path d="M 643.04975 -599.0399 C 643.04975 -604.8305 642.4649 -605.5469 638.1929 -611.2776 L 638.14776 -611.3369 C 633.85316 -617.1275 633.8085 -617.1275 629.4011 -617.1275 C 623.5325 -617.1275 597 -617.1275 597 -617.1275 L 597 -565 C 597 -560.02944 601.02944 -556 606 -556 L 634.04975 -556 C 639.0203 -556 643.04975 -560.02944 643.04975 -565 L 643.04975 -599.0399 Z" fill="#c0ffc0"/>
              <path d="M 643.04975 -599.0399 C 643.04975 -604.8305 642.4649 -605.5469 638.1929 -611.2776 L 638.14776 -611.3369 C 633.85316 -617.1275 633.8085 -617.1275 629.4011 -617.1275 C 623.5325 -617.1275 597 -617.1275 597 -617.1275 L 597 -565 C 597 -560.02944 601.02944 -556 606 -556 L 634.04975 -556 C 639.0203 -556 643.04975 -560.02944 643.04975 -565 L 643.04975 -599.0399 Z M 643.04975 -599.3382 C 643.04975 -604.8305 643.0046 -604.8305 633.8085 -604.8305 L 633.8085 -604.8305 C 633.8085 -617.0676 633.8085 -617.1275 629.6709 -617.1275" stroke="black" stroke-linecap="round" stroke-linejoin="round" stroke-width="1"/>
              <text transform="translate(602 -605.01174)" fill="black">
                <tspan font-family="Helvetica Neue" font-size="16" fill="black" x="3.9528756" y="15">Rea</tspan>
                <tspan font-family="Helvetica Neue" font-size="16" fill="black" x="9.280876" y="33.448">ds</tspan>
              </text>
            </g>
            <g id="Graphic_87">
              <path d="M 649 -604.9124 C 649 -610.703 648.4152 -611.4194 644.1431 -617.1501 L 644.098 -617.2094 C 639.8034 -623 639.7587 -623 635.3513 -623 C 629.4827 -623 602.95025 -623 602.95025 -623 L 602.95025 -570.8725 C 602.95025 -565.90195 606.9797 -561.8725 611.95025 -561.8725 L 640 -561.8725 C 644.9706 -561.8725 649 -565.90195 649 -570.8725 L 649 -604.9124 Z" fill="#c0ffc0"/>
              <path d="M 649 -604.9124 C 649 -610.703 648.4152 -611.4194 644.1431 -617.1501 L 644.098 -617.2094 C 639.8034 -623 639.7587 -623 635.3513 -623 C 629.4827 -623 602.95025 -623 602.95025 -623 L 602.95025 -570.8725 C 602.95025 -565.90195 606.9797 -561.8725 611.95025 -561.8725 L 640 -561.8725 C 644.9706 -561.8725 649 -565.90195 649 -570.8725 L 649 -604.9124 Z M 649 -605.2107 C 649 -610.703 648.9549 -610.703 639.7587 -610.703 L 639.7587 -610.703 C 639.7587 -622.9401 639.7587 -623 635.6212 -623" stroke="black" stroke-linecap="round" stroke-linejoin="round" stroke-width="1"/>
              <text transform="translate(607.95025 -599.60425)" fill="black">
                <tspan font-family="Helvetica Neue" font-size="12" fill="black" x=".9128756" y="11">Reads</tspan>
              </text>
            </g>
          </g>
        </g>
        <g id="Group_90">
          <g id="Graphic_94">
            <path d="M 587.5 -648 L 651.5 -648 C 656.4706 -648 660.5 -643.9706 660.5 -639 L 660.5 -558 C 660.5 -553.02944 656.4706 -549 651.5 -549 L 596.5 -549 C 591.52944 -549 587.5 -553.02944 587.5 -558 Z" fill="#ffffc0"/>
            <path d="M 587.5 -648 L 651.5 -648 C 656.4706 -648 660.5 -643.9706 660.5 -639 L 660.5 -558 C 660.5 -553.02944 656.4706 -549 651.5 -549 L 596.5 -549 C 591.52944 -549 587.5 -553.02944 587.5 -558 Z" stroke="black" stroke-linecap="round" stroke-linejoin="round" stroke-width="1"/>
            <text transform="translate(592.5 -643)" fill="black">
              <tspan font-family="Helvetica Neue" font-size="16" fill="black" x="4.38" y="15">Sample</tspan>
            </text>
          </g>
          <g id="Group_91">
            <g id="Graphic_93">
              <path d="M 644.04975 -598.0399 C 644.04975 -603.8305 643.4649 -604.5469 639.1929 -610.2776 L 639.14776 -610.3369 C 634.85316 -616.1275 634.8085 -616.1275 630.4011 -616.1275 C 624.5325 -616.1275 598 -616.1275 598 -616.1275 L 598 -564 C 598 -559.02944 602.02944 -555 607 -555 L 635.04975 -555 C 640.0203 -555 644.04975 -559.02944 644.04975 -564 L 644.04975 -598.0399 Z" fill="#c0ffc0"/>
              <path d="M 644.04975 -598.0399 C 644.04975 -603.8305 643.4649 -604.5469 639.1929 -610.2776 L 639.14776 -610.3369 C 634.85316 -616.1275 634.8085 -616.1275 630.4011 -616.1275 C 624.5325 -616.1275 598 -616.1275 598 -616.1275 L 598 -564 C 598 -559.02944 602.02944 -555 607 -555 L 635.04975 -555 C 640.0203 -555 644.04975 -559.02944 644.04975 -564 L 644.04975 -598.0399 Z M 644.04975 -598.3382 C 644.04975 -603.8305 644.0046 -603.8305 634.8085 -603.8305 L 634.8085 -603.8305 C 634.8085 -616.0676 634.8085 -616.1275 630.6709 -616.1275" stroke="black" stroke-linecap="round" stroke-linejoin="round" stroke-width="1"/>
              <text transform="translate(603 -604.01174)" fill="black">
                <tspan font-family="Helvetica Neue" font-size="16" fill="black" x="3.9528756" y="15">Rea</tspan>
                <tspan font-family="Helvetica Neue" font-size="16" fill="black" x="9.280876" y="33.448">ds</tspan>
              </text>
            </g>
            <g id="Graphic_92">
              <path d="M 650 -603.9124 C 650 -609.703 649.4152 -610.4194 645.1431 -616.1501 L 645.098 -616.2094 C 640.8034 -622 640.7587 -622 636.3513 -622 C 630.4827 -622 603.95025 -622 603.95025 -622 L 603.95025 -569.8725 C 603.95025 -564.90195 607.9797 -560.8725 612.95025 -560.8725 L 641 -560.8725 C 645.9706 -560.8725 650 -564.90195 650 -569.8725 L 650 -603.9124 Z" fill="#c0ffc0"/>
              <path d="M 650 -603.9124 C 650 -609.703 649.4152 -610.4194 645.1431 -616.1501 L 645.098 -616.2094 C 640.8034 -622 640.7587 -622 636.3513 -622 C 630.4827 -622 603.95025 -622 603.95025 -622 L 603.95025 -569.8725 C 603.95025 -564.90195 607.9797 -560.8725 612.95025 -560.8725 L 641 -560.8725 C 645.9706 -560.8725 650 -564.90195 650 -569.8725 L 650 -603.9124 Z M 650 -604.2107 C 650 -609.703 649.9549 -609.703 640.7587 -609.703 L 640.7587 -609.703 C 640.7587 -621.9401 640.7587 -622 636.6212 -622" stroke="black" stroke-linecap="round" stroke-linejoin="round" stroke-width="1"/>
              <text transform="translate(608.95025 -598.60425)" fill="black">
                <tspan font-family="Helvetica Neue" font-size="12" fill="black" x=".9128756" y="11">Reads</tspan>
              </text>
            </g>
          </g>
        </g>
        <g id="Group_95">
          <g id="Graphic_99">
            <path d="M 588.5 -647 L 652.5 -647 C 657.4706 -647 661.5 -642.9706 661.5 -638 L 661.5 -557 C 661.5 -552.02944 657.4706 -548 652.5 -548 L 597.5 -548 C 592.52944 -548 588.5 -552.02944 588.5 -557 Z" fill="#ffffc0"/>
            <path d="M 588.5 -647 L 652.5 -647 C 657.4706 -647 661.5 -642.9706 661.5 -638 L 661.5 -557 C 661.5 -552.02944 657.4706 -548 652.5 -548 L 597.5 -548 C 592.52944 -548 588.5 -552.02944 588.5 -557 Z" stroke="black" stroke-linecap="round" stroke-linejoin="round" stroke-width="1"/>
            <text transform="translate(593.5 -642)" fill="black">
              <tspan font-family="Helvetica Neue" font-size="16" fill="black" x="4.38" y="15">Sample</tspan>
            </text>
          </g>
          <g id="Group_96">
            <g id="Graphic_98">
              <path d="M 645.04975 -597.0399 C 645.04975 -602.8305 644.4649 -603.5469 640.1929 -609.2776 L 640.14776 -609.3369 C 635.85316 -615.1275 635.8085 -615.1275 631.4011 -615.1275 C 625.5325 -615.1275 599 -615.1275 599 -615.1275 L 599 -563 C 599 -558.02944 603.02944 -554 608 -554 L 636.04975 -554 C 641.0203 -554 645.04975 -558.02944 645.04975 -563 L 645.04975 -597.0399 Z" fill="#c0ffc0"/>
              <path d="M 645.04975 -597.0399 C 645.04975 -602.8305 644.4649 -603.5469 640.1929 -609.2776 L 640.14776 -609.3369 C 635.85316 -615.1275 635.8085 -615.1275 631.4011 -615.1275 C 625.5325 -615.1275 599 -615.1275 599 -615.1275 L 599 -563 C 599 -558.02944 603.02944 -554 608 -554 L 636.04975 -554 C 641.0203 -554 645.04975 -558.02944 645.04975 -563 L 645.04975 -597.0399 Z M 645.04975 -597.3382 C 645.04975 -602.8305 645.0046 -602.8305 635.8085 -602.8305 L 635.8085 -602.8305 C 635.8085 -615.0676 635.8085 -615.1275 631.6709 -615.1275" stroke="black" stroke-linecap="round" stroke-linejoin="round" stroke-width="1"/>
              <text transform="translate(604 -603.01174)" fill="black">
                <tspan font-family="Helvetica Neue" font-size="16" fill="black" x="3.9528756" y="15">Rea</tspan>
                <tspan font-family="Helvetica Neue" font-size="16" fill="black" x="9.280876" y="33.448">ds</tspan>
              </text>
            </g>
            <g id="Graphic_97">
              <path d="M 651 -602.9124 C 651 -608.703 650.4152 -609.4194 646.1431 -615.1501 L 646.098 -615.2094 C 641.8034 -621 641.7587 -621 637.3513 -621 C 631.4827 -621 604.95025 -621 604.95025 -621 L 604.95025 -568.8725 C 604.95025 -563.90195 608.9797 -559.8725 613.95025 -559.8725 L 642 -559.8725 C 646.9706 -559.8725 651 -563.90195 651 -568.8725 L 651 -602.9124 Z" fill="#c0ffc0"/>
              <path d="M 651 -602.9124 C 651 -608.703 650.4152 -609.4194 646.1431 -615.1501 L 646.098 -615.2094 C 641.8034 -621 641.7587 -621 637.3513 -621 C 631.4827 -621 604.95025 -621 604.95025 -621 L 604.95025 -568.8725 C 604.95025 -563.90195 608.9797 -559.8725 613.95025 -559.8725 L 642 -559.8725 C 646.9706 -559.8725 651 -563.90195 651 -568.8725 L 651 -602.9124 Z M 651 -603.2107 C 651 -608.703 650.9549 -608.703 641.7587 -608.703 L 641.7587 -608.703 C 641.7587 -620.9401 641.7587 -621 637.6212 -621" stroke="black" stroke-linecap="round" stroke-linejoin="round" stroke-width="1"/>
              <text transform="translate(609.95025 -597.60425)" fill="black">
                <tspan font-family="Helvetica Neue" font-size="12" fill="black" x=".9128756" y="11">Reads</tspan>
              </text>
            </g>
          </g>
        </g>
        <g id="Group_100">
          <g id="Graphic_104">
            <path d="M 589.5 -646 L 653.5 -646 C 658.4706 -646 662.5 -641.9706 662.5 -637 L 662.5 -556 C 662.5 -551.02944 658.4706 -547 653.5 -547 L 598.5 -547 C 593.52944 -547 589.5 -551.02944 589.5 -556 Z" fill="#ffffc0"/>
            <path d="M 589.5 -646 L 653.5 -646 C 658.4706 -646 662.5 -641.9706 662.5 -637 L 662.5 -556 C 662.5 -551.02944 658.4706 -547 653.5 -547 L 598.5 -547 C 593.52944 -547 589.5 -551.02944 589.5 -556 Z" stroke="black" stroke-linecap="round" stroke-linejoin="round" stroke-width="1"/>
            <text transform="translate(594.5 -641)" fill="black">
              <tspan font-family="Helvetica Neue" font-size="16" fill="black" x="4.38" y="15">Sample</tspan>
            </text>
          </g>
          <g id="Group_101">
            <g id="Graphic_103">
              <path d="M 646.04975 -596.0399 C 646.04975 -601.8305 645.4649 -602.5469 641.1929 -608.2776 L 641.14776 -608.3369 C 636.85316 -614.1275 636.8085 -614.1275 632.4011 -614.1275 C 626.5325 -614.1275 600 -614.1275 600 -614.1275 L 600 -562 C 600 -557.02944 604.02944 -553 609 -553 L 637.04975 -553 C 642.0203 -553 646.04975 -557.02944 646.04975 -562 L 646.04975 -596.0399 Z" fill="#c0ffc0"/>
              <path d="M 646.04975 -596.0399 C 646.04975 -601.8305 645.4649 -602.5469 641.1929 -608.2776 L 641.14776 -608.3369 C 636.85316 -614.1275 636.8085 -614.1275 632.4011 -614.1275 C 626.5325 -614.1275 600 -614.1275 600 -614.1275 L 600 -562 C 600 -557.02944 604.02944 -553 609 -553 L 637.04975 -553 C 642.0203 -553 646.04975 -557.02944 646.04975 -562 L 646.04975 -596.0399 Z M 646.04975 -596.3382 C 646.04975 -601.8305 646.0046 -601.8305 636.8085 -601.8305 L 636.8085 -601.8305 C 636.8085 -614.0676 636.8085 -614.1275 632.6709 -614.1275" stroke="black" stroke-linecap="round" stroke-linejoin="round" stroke-width="1"/>
              <text transform="translate(605 -602.01174)" fill="black">
                <tspan font-family="Helvetica Neue" font-size="16" fill="black" x="3.9528756" y="15">Rea</tspan>
                <tspan font-family="Helvetica Neue" font-size="16" fill="black" x="9.280876" y="33.448">ds</tspan>
              </text>
            </g>
            <g id="Graphic_102">
              <path d="M 652 -601.9124 C 652 -607.703 651.4152 -608.4194 647.1431 -614.1501 L 647.098 -614.2094 C 642.8034 -620 642.7587 -620 638.3513 -620 C 632.4827 -620 605.95025 -620 605.95025 -620 L 605.95025 -567.8725 C 605.95025 -562.90195 609.9797 -558.8725 614.95025 -558.8725 L 643 -558.8725 C 647.9706 -558.8725 652 -562.90195 652 -567.8725 L 652 -601.9124 Z" fill="#c0ffc0"/>
              <path d="M 652 -601.9124 C 652 -607.703 651.4152 -608.4194 647.1431 -614.1501 L 647.098 -614.2094 C 642.8034 -620 642.7587 -620 638.3513 -620 C 632.4827 -620 605.95025 -620 605.95025 -620 L 605.95025 -567.8725 C 605.95025 -562.90195 609.9797 -558.8725 614.95025 -558.8725 L 643 -558.8725 C 647.9706 -558.8725 652 -562.90195 652 -567.8725 L 652 -601.9124 Z M 652 -602.2107 C 652 -607.703 651.9549 -607.703 642.7587 -607.703 L 642.7587 -607.703 C 642.7587 -619.9401 642.7587 -620 638.6212 -620" stroke="black" stroke-linecap="round" stroke-linejoin="round" stroke-width="1"/>
              <text transform="translate(610.95025 -596.60425)" fill="black">
                <tspan font-family="Helvetica Neue" font-size="12" fill="black" x=".9128756" y="11">Reads</tspan>
              </text>
            </g>
          </g>
        </g>
        <g id="Group_105">
          <g id="Graphic_109">
            <path d="M 590.5 -645 L 654.5 -645 C 659.4706 -645 663.5 -640.9706 663.5 -636 L 663.5 -555 C 663.5 -550.02944 659.4706 -546 654.5 -546 L 599.5 -546 C 594.52944 -546 590.5 -550.02944 590.5 -555 Z" fill="#ffffc0"/>
            <path d="M 590.5 -645 L 654.5 -645 C 659.4706 -645 663.5 -640.9706 663.5 -636 L 663.5 -555 C 663.5 -550.02944 659.4706 -546 654.5 -546 L 599.5 -546 C 594.52944 -546 590.5 -550.02944 590.5 -555 Z" stroke="black" stroke-linecap="round" stroke-linejoin="round" stroke-width="1"/>
            <text transform="translate(595.5 -640)" fill="black">
              <tspan font-family="Helvetica Neue" font-size="14" fill="black" x="7.77" y="13">Sample</tspan>
            </text>
          </g>
          <g id="Group_106">
            <g id="Graphic_108">
              <path d="M 647.04975 -595.0399 C 647.04975 -600.8305 646.4649 -601.5469 642.1929 -607.2776 L 642.14776 -607.3369 C 637.85316 -613.1275 637.8085 -613.1275 633.4011 -613.1275 C 627.5325 -613.1275 601 -613.1275 601 -613.1275 L 601 -561 C 601 -556.02944 605.02944 -552 610 -552 L 638.04975 -552 C 643.0203 -552 647.04975 -556.02944 647.04975 -561 L 647.04975 -595.0399 Z" fill="#c0ffc0"/>
              <path d="M 647.04975 -595.0399 C 647.04975 -600.8305 646.4649 -601.5469 642.1929 -607.2776 L 642.14776 -607.3369 C 637.85316 -613.1275 637.8085 -613.1275 633.4011 -613.1275 C 627.5325 -613.1275 601 -613.1275 601 -613.1275 L 601 -561 C 601 -556.02944 605.02944 -552 610 -552 L 638.04975 -552 C 643.0203 -552 647.04975 -556.02944 647.04975 -561 L 647.04975 -595.0399 Z M 647.04975 -595.3382 C 647.04975 -600.8305 647.0046 -600.8305 637.8085 -600.8305 L 637.8085 -600.8305 C 637.8085 -613.0676 637.8085 -613.1275 633.6709 -613.1275" stroke="black" stroke-linecap="round" stroke-linejoin="round" stroke-width="1"/>
              <text transform="translate(606 -601.01174)" fill="black">
                <tspan font-family="Helvetica Neue" font-size="16" fill="black" x="3.9528756" y="15">Rea</tspan>
                <tspan font-family="Helvetica Neue" font-size="16" fill="black" x="9.280876" y="33.448">ds</tspan>
              </text>
            </g>
            <g id="Graphic_107">
              <path d="M 653 -600.9124 C 653 -606.703 652.4152 -607.4194 648.1431 -613.1501 L 648.098 -613.2094 C 643.8034 -619 643.7587 -619 639.3513 -619 C 633.4827 -619 606.95025 -619 606.95025 -619 L 606.95025 -566.8725 C 606.95025 -561.90195 610.9797 -557.8725 615.95025 -557.8725 L 644 -557.8725 C 648.9706 -557.8725 653 -561.90195 653 -566.8725 L 653 -600.9124 Z" fill="#c0ffc0"/>
              <path d="M 653 -600.9124 C 653 -606.703 652.4152 -607.4194 648.1431 -613.1501 L 648.098 -613.2094 C 643.8034 -619 643.7587 -619 639.3513 -619 C 633.4827 -619 606.95025 -619 606.95025 -619 L 606.95025 -566.8725 C 606.95025 -561.90195 610.9797 -557.8725 615.95025 -557.8725 L 644 -557.8725 C 648.9706 -557.8725 653 -561.90195 653 -566.8725 L 653 -600.9124 Z M 653 -601.2107 C 653 -606.703 652.9549 -606.703 643.7587 -606.703 L 643.7587 -606.703 C 643.7587 -618.9401 643.7587 -619 639.6212 -619" stroke="black" stroke-linecap="round" stroke-linejoin="round" stroke-width="1"/>
              <text transform="translate(611.95025 -595.60425)" fill="black">
                <tspan font-family="Helvetica Neue" font-size="12" fill="black" x=".9128756" y="11">Reads</tspan>
              </text>
            </g>
          </g>
        </g>
      </g>
      <g id="Line_111">
        <line x1="663.5" y1="-595.7626" x2="699.6023" y2="-596.0223" marker-end="url(#FilledArrow_Marker)" stroke="black" stroke-linecap="round" stroke-linejoin="round" stroke-width="1"/>
      </g>
    </g>
  </g>
</svg>
