<?xml version="1.0" encoding="UTF-8" standalone="no"?>
<!DOCTYPE svg PUBLIC "-//W3C//DTD SVG 1.1//EN" "http://www.w3.org/Graphics/SVG/1.1/DTD/svg11.dtd">
<svg xmlns:xl="http://www.w3.org/1999/xlink" xmlns="http://www.w3.org/2000/svg" version="1.1" xmlns:dc="http://purl.org/dc/elements/1.1/" viewBox="50 -632.3775 459.4005 62.12749" width="459.4005" height="62.12749">
  <defs>
    <marker orient="auto" overflow="visible" markerUnits="strokeWidth" id="FilledArrow_Marker" stroke-linejoin="miter" stroke-miterlimit="10" viewBox="-1 -4 10 8" markerWidth="10" markerHeight="8" color="black">
      <g>
        <path d="M 8 0 L 0 -3 L 0 3 Z" fill="currentColor" stroke="currentColor" stroke-width="1"/>
      </g>
    </marker>
  </defs>
  <g id="Canvas_1" stroke="none" stroke-opacity="1" stroke-dasharray="none" fill="none" fill-opacity="1">
    <title>Canvas 1</title>
    <g id="Canvas_1_Layer_1">
      <title>Layer 1</title>
      <g id="Graphic_209">
        <path d="M 145.95 -627.06375 L 225.05 -627.06375 C 234.4064 -627.06375 242 -615.52775 242 -601.31375 C 242 -587.09975 234.4064 -575.56375 225.05 -575.56375 L 145.95 -575.56375 C 136.5936 -575.56375 129 -587.09975 129 -601.31375 C 129 -615.52775 136.5936 -627.06375 145.95 -627.06375 Z" fill="#ffffc0"/>
        <path d="M 145.95 -627.06375 L 225.05 -627.06375 C 234.4064 -627.06375 242 -615.52775 242 -601.31375 C 242 -587.09975 234.4064 -575.56375 225.05 -575.56375 L 145.95 -575.56375 C 136.5936 -575.56375 129 -587.09975 129 -601.31375 C 129 -615.52775 136.5936 -627.06375 145.95 -627.06375 Z" stroke="gray" stroke-linecap="round" stroke-linejoin="round" stroke-width="1"/>
        <text transform="translate(145.3 -609.50974)" fill="black">
          <tspan font-family="Helvetica Neue" font-size="14" fill="black" x="9.995001" y="13">PDF2Text</tspan>
        </text>
      </g>
      <g id="Graphic_208">
        <path d="M 291.40025 -627.06375 L 370.50025 -627.06375 C 379.85665 -627.06375 387.45025 -615.52775 387.45025 -601.31375 C 387.45025 -587.09975 379.85665 -575.56375 370.50025 -575.56375 L 291.40025 -575.56375 C 282.04385 -575.56375 274.45025 -587.09975 274.45025 -601.31375 C 274.45025 -615.52775 282.04385 -627.06375 291.40025 -627.06375 Z" fill="#ffffc0"/>
        <path d="M 291.40025 -627.06375 L 370.50025 -627.06375 C 379.85665 -627.06375 387.45025 -615.52775 387.45025 -601.31375 C 387.45025 -587.09975 379.85665 -575.56375 370.50025 -575.56375 L 291.40025 -575.56375 C 282.04385 -575.56375 274.45025 -587.09975 274.45025 -601.31375 C 274.45025 -615.52775 282.04385 -627.06375 291.40025 -627.06375 Z" stroke="gray" stroke-linecap="round" stroke-linejoin="round" stroke-width="1"/>
        <text transform="translate(290.75025 -609.50974)" fill="black">
          <tspan font-family="Helvetica Neue" font-size="14" fill="black" x="4.157001" y="13">Text2Image</tspan>
        </text>
      </g>
      <g id="Line_203">
        <line x1="242" y1="-601.31375" x2="264.55025" y2="-601.31375" marker-end="url(#FilledArrow_Marker)" stroke="black" stroke-linecap="round" stroke-linejoin="round" stroke-width="1"/>
      </g>
      <g id="Graphic_116">
        <path d="M 96.54975 -613.7899 C 96.54975 -619.5805 95.96492 -620.2969 91.69288 -626.0276 L 91.64776 -626.0869 C 87.35316 -631.8775 87.30849 -631.8775 82.90107 -631.8775 C 77.032485 -631.8775 50.5 -631.8775 50.5 -631.8775 L 50.5 -579.75 C 50.5 -574.77944 54.52944 -570.75 59.5 -570.75 L 87.54975 -570.75 C 92.52031 -570.75 96.54975 -574.77944 96.54975 -579.75 L 96.54975 -613.7899 Z" fill="#c0ffc0"/>
        <path d="M 96.54975 -613.7899 C 96.54975 -619.5805 95.96492 -620.2969 91.69288 -626.0276 L 91.64776 -626.0869 C 87.35316 -631.8775 87.30849 -631.8775 82.90107 -631.8775 C 77.032485 -631.8775 50.5 -631.8775 50.5 -631.8775 L 50.5 -579.75 C 50.5 -574.77944 54.52944 -570.75 59.5 -570.75 L 87.54975 -570.75 C 92.52031 -570.75 96.54975 -574.77944 96.54975 -579.75 L 96.54975 -613.7899 Z M 96.54975 -614.0882 C 96.54975 -619.5805 96.50462 -619.5805 87.30849 -619.5805 L 87.30849 -619.5805 C 87.30849 -631.8176 87.30849 -631.8775 83.17092 -631.8775" stroke="black" stroke-linecap="round" stroke-linejoin="round" stroke-width="1"/>
        <text transform="translate(55.5 -608.48174)" fill="black">
          <tspan font-family="Helvetica Neue" font-size="12" fill="black" x="6.468876" y="11">PDF</tspan>
        </text>
      </g>
      <g id="Graphic_210">
        <path d="M 451.0505 -631.8775 L 477.7505 -631.8775 C 486.6505 -631.8775 491.1005 -631.8775 496.4405 -630.65494 C 500.8905 -629.4324 505.3405 -626.376 507.1205 -623.31964 C 508.9005 -619.652 508.9005 -616.5956 508.9005 -610.4829 L 508.9005 -592.1446 C 508.9005 -586.0319 508.9005 -582.9755 507.1205 -579.30785 C 505.3405 -576.2515 500.8905 -573.1951 496.4405 -571.97255 C 491.1005 -570.75 486.6505 -570.75 477.7505 -570.75 L 451.0505 -570.75 C 442.1505 -570.75 437.7005 -570.75 432.3605 -571.97255 C 427.9105 -573.1951 423.4605 -576.2515 421.6805 -579.30785 C 419.9005 -582.9755 419.9005 -586.0319 419.9005 -592.1446 L 419.9005 -610.4829 C 419.9005 -616.5956 419.9005 -619.652 421.6805 -623.31964 C 423.4605 -626.376 427.9105 -629.4324 432.3605 -630.65494 C 437.7005 -631.8775 442.1505 -631.8775 451.0505 -631.8775" fill="#c0ffc0"/>
        <path d="M 451.0505 -631.8775 L 477.7505 -631.8775 C 486.6505 -631.8775 491.1005 -631.8775 496.4405 -630.65494 C 500.8905 -629.4324 505.3405 -626.376 507.1205 -623.31964 C 508.9005 -619.652 508.9005 -616.5956 508.9005 -610.4829 L 508.9005 -592.1446 C 508.9005 -586.0319 508.9005 -582.9755 507.1205 -579.30785 C 505.3405 -576.2515 500.8905 -573.1951 496.4405 -571.97255 C 491.1005 -570.75 486.6505 -570.75 477.7505 -570.75 L 451.0505 -570.75 C 442.1505 -570.75 437.7005 -570.75 432.3605 -571.97255 C 427.9105 -573.1951 423.4605 -576.2515 421.6805 -579.30785 C 419.9005 -582.9755 419.9005 -586.0319 419.9005 -592.1446 L 419.9005 -610.4829 C 419.9005 -616.5956 419.9005 -619.652 421.6805 -623.31964 C 423.4605 -626.376 427.9105 -629.4324 432.3605 -630.65494 C 437.7005 -631.8775 442.1505 -631.8775 451.0505 -631.8775" stroke="black" stroke-linecap="round" stroke-linejoin="round" stroke-width="1"/>
        <text transform="translate(424.9005 -608.48174)" fill="black">
          <tspan font-family="Helvetica Neue" font-size="12" fill="black" x="22.94" y="11">Image</tspan>
        </text>
      </g>
      <g id="Line_211">
        <line x1="96.54975" y1="-601.31375" x2="119.1" y2="-601.31375" marker-end="url(#FilledArrow_Marker)" stroke="black" stroke-linecap="round" stroke-linejoin="round" stroke-width="1"/>
      </g>
      <g id="Line_212">
        <line x1="387.45025" y1="-601.31375" x2="410.0005" y2="-601.31375" marker-end="url(#FilledArrow_Marker)" stroke="black" stroke-linecap="round" stroke-linejoin="round" stroke-width="1"/>
      </g>
    </g>
  </g>
</svg>
